Akira (1988)
 124 min  -  Animation | Fantasy | Sci-Fi  -   24 July 2001 (USA)
8.0 Your rating:   -/10   Ratings: 8.0/10 from 58,589 users   Metascore: 76/100  
Reviews: 379 user | 108 critic | 4 from Metacritic.com
A secret military project endangers Neo-Tokyo when it turns a biker gang member into a rampaging psionic psychopath that only two kids and a group of psionics can stop.

Director: Katsuhiro Ôtomo
Writers: Katsuhiro Ôtomo (screenplay), Izô Hashimoto (screenplay), and 1 more credit »
Stars: Nozomu Sasaki, Mami Koyama and Mitsuo Iwata |

Format                                   : MPEG-4
Format profile                           : Base Media
Codec ID                                 : isom
File size                                : 609 MiB
Duration                                 : 2h 4mn
Overall bit rate mode                    : Variable
Overall bit rate                         : 684 Kbps
Encoded date                             : UTC 2011-01-13 06:22:21
Tagged date                              : UTC 2011-01-13 06:22:21

Video
ID                                       : 1
Format                                   : AVC
Format/Info                              : Advanced Video Codec
Format profile                           : Baseline@L3.0
Format settings, CABAC                   : No
Format settings, ReFrames                : 1 frame
Codec ID                                 : avc1
Codec ID/Info                            : Advanced Video Coding
Duration                                 : 2h 4mn
Bit rate                                 : 559 Kbps
Maximum bit rate                         : 2 165 Kbps
Width                                    : 800 pixels
Height                                   : 416 pixels
Display aspect ratio                     : 1.923
Frame rate mode                          : Constant
Frame rate                               : 23.976 fps
Color space                              : YUV
Chroma subsampling                       : 4:2:0
Bit depth                                : 8 bits
Scan type                                : Progressive
Bits/(Pixel*Frame)                       : 0.070
Stream size                              : 495 MiB (81%)
Writing library                          : x264 core 65 r1077 e46f648
Audio
ID                                       : 2
Format                                   : AAC
Format/Info                              : Advanced Audio Codec
Format profile                           : LC
Codec ID                                 : 40
Duration                                 : 2h 4mn
Bit rate mode                            : Variable
Bit rate                                 : 126 Kbps
Maximum bit rate                         : 156 Kbps
Channel(s)                               : 2 channels
Channel positions                        : Front: L R
Sampling rate                            : 44.1 KHz
Compression mode                         : Lossy
Stream size                              : 112 MiB (18%)
Encoded date                             : UTC 2011-01-13 06:23:14
Tagged date                              : UTC 2011-01-13 06:23:30